<?xml version="1.0" encoding="UTF-8"?>
<!-- Lucide icon sprite v1.8.0 - ISC License - https://lucide.dev -->
<svg xmlns="http://www.w3.org/2000/svg" style="display:none" aria-hidden="true">
  <symbol id="icon-home" viewBox="0 0 24 24" fill="none" stroke="currentColor" stroke-width="2" stroke-linecap="round" stroke-linejoin="round"><path d="M15 21v-8a1 1 0 0 0-1-1h-4a1 1 0 0 0-1 1v8" /> <path d="M3 10a2 2 0 0 1 .709-1.528l7-6a2 2 0 0 1 2.582 0l7 6A2 2 0 0 1 21 10v9a2 2 0 0 1-2 2H5a2 2 0 0 1-2-2z" /></symbol>
  <symbol id="icon-grid" viewBox="0 0 24 24" fill="none" stroke="currentColor" stroke-width="2" stroke-linecap="round" stroke-linejoin="round"><rect width="18" height="18" x="3" y="3" rx="2" /> <path d="M3 9h18" /> <path d="M3 15h18" /> <path d="M9 3v18" /> <path d="M15 3v18" /></symbol>
  <symbol id="icon-layers" viewBox="0 0 24 24" fill="none" stroke="currentColor" stroke-width="2" stroke-linecap="round" stroke-linejoin="round"><path d="M12.83 2.18a2 2 0 0 0-1.66 0L2.6 6.08a1 1 0 0 0 0 1.83l8.58 3.91a2 2 0 0 0 1.66 0l8.58-3.9a1 1 0 0 0 0-1.83z" /> <path d="M2 12a1 1 0 0 0 .58.91l8.6 3.91a2 2 0 0 0 1.65 0l8.58-3.9A1 1 0 0 0 22 12" /> <path d="M2 17a1 1 0 0 0 .58.91l8.6 3.91a2 2 0 0 0 1.65 0l8.58-3.9A1 1 0 0 0 22 17" /></symbol>
  <symbol id="icon-activity" viewBox="0 0 24 24" fill="none" stroke="currentColor" stroke-width="2" stroke-linecap="round" stroke-linejoin="round"><path d="M22 12h-2.48a2 2 0 0 0-1.93 1.46l-2.35 8.36a.25.25 0 0 1-.48 0L9.24 2.18a.25.25 0 0 0-.48 0l-2.35 8.36A2 2 0 0 1 4.49 12H2" /></symbol>
  <symbol id="icon-link" viewBox="0 0 24 24" fill="none" stroke="currentColor" stroke-width="2" stroke-linecap="round" stroke-linejoin="round"><path d="M10 13a5 5 0 0 0 7.54.54l3-3a5 5 0 0 0-7.07-7.07l-1.72 1.71" /> <path d="M14 11a5 5 0 0 0-7.54-.54l-3 3a5 5 0 0 0 7.07 7.07l1.71-1.71" /></symbol>
  <symbol id="icon-settings" viewBox="0 0 24 24" fill="none" stroke="currentColor" stroke-width="2" stroke-linecap="round" stroke-linejoin="round"><path d="M9.671 4.136a2.34 2.34 0 0 1 4.659 0 2.34 2.34 0 0 0 3.319 1.915 2.34 2.34 0 0 1 2.33 4.033 2.34 2.34 0 0 0 0 3.831 2.34 2.34 0 0 1-2.33 4.033 2.34 2.34 0 0 0-3.319 1.915 2.34 2.34 0 0 1-4.659 0 2.34 2.34 0 0 0-3.32-1.915 2.34 2.34 0 0 1-2.33-4.033 2.34 2.34 0 0 0 0-3.831A2.34 2.34 0 0 1 6.35 6.051a2.34 2.34 0 0 0 3.319-1.915" /> <circle cx="12" cy="12" r="3" /></symbol>
  <symbol id="icon-search" viewBox="0 0 24 24" fill="none" stroke="currentColor" stroke-width="2" stroke-linecap="round" stroke-linejoin="round"><path d="m21 21-4.34-4.34" /> <circle cx="11" cy="11" r="8" /></symbol>
  <symbol id="icon-filter" viewBox="0 0 24 24" fill="none" stroke="currentColor" stroke-width="2" stroke-linecap="round" stroke-linejoin="round"><path d="M10 20a1 1 0 0 0 .553.895l2 1A1 1 0 0 0 14 21v-7a2 2 0 0 1 .517-1.341L21.74 4.67A1 1 0 0 0 21 3H3a1 1 0 0 0-.742 1.67l7.225 7.989A2 2 0 0 1 10 14z" /></symbol>
  <symbol id="icon-plus" viewBox="0 0 24 24" fill="none" stroke="currentColor" stroke-width="2" stroke-linecap="round" stroke-linejoin="round"><path d="M5 12h14" /> <path d="M12 5v14" /></symbol>
  <symbol id="icon-minus" viewBox="0 0 24 24" fill="none" stroke="currentColor" stroke-width="2" stroke-linecap="round" stroke-linejoin="round"><path d="M5 12h14" /></symbol>
  <symbol id="icon-edit" viewBox="0 0 24 24" fill="none" stroke="currentColor" stroke-width="2" stroke-linecap="round" stroke-linejoin="round"><path d="M12 3H5a2 2 0 0 0-2 2v14a2 2 0 0 0 2 2h14a2 2 0 0 0 2-2v-7" /> <path d="M18.375 2.625a1 1 0 0 1 3 3l-9.013 9.014a2 2 0 0 1-.853.505l-2.873.84a.5.5 0 0 1-.62-.62l.84-2.873a2 2 0 0 1 .506-.852z" /></symbol>
  <symbol id="icon-trash" viewBox="0 0 24 24" fill="none" stroke="currentColor" stroke-width="2" stroke-linecap="round" stroke-linejoin="round"><path d="M19 6v14a2 2 0 0 1-2 2H7a2 2 0 0 1-2-2V6" /> <path d="M3 6h18" /> <path d="M8 6V4a2 2 0 0 1 2-2h4a2 2 0 0 1 2 2v2" /></symbol>
  <symbol id="icon-download" viewBox="0 0 24 24" fill="none" stroke="currentColor" stroke-width="2" stroke-linecap="round" stroke-linejoin="round"><path d="M12 15V3" /> <path d="M21 15v4a2 2 0 0 1-2 2H5a2 2 0 0 1-2-2v-4" /> <path d="m7 10 5 5 5-5" /></symbol>
  <symbol id="icon-upload" viewBox="0 0 24 24" fill="none" stroke="currentColor" stroke-width="2" stroke-linecap="round" stroke-linejoin="round"><path d="M12 3v12" /> <path d="m17 8-5-5-5 5" /> <path d="M21 15v4a2 2 0 0 1-2 2H5a2 2 0 0 1-2-2v-4" /></symbol>
  <symbol id="icon-eye" viewBox="0 0 24 24" fill="none" stroke="currentColor" stroke-width="2" stroke-linecap="round" stroke-linejoin="round"><path d="M2.062 12.348a1 1 0 0 1 0-.696 10.75 10.75 0 0 1 19.876 0 1 1 0 0 1 0 .696 10.75 10.75 0 0 1-19.876 0" /> <circle cx="12" cy="12" r="3" /></symbol>
  <symbol id="icon-eye-off" viewBox="0 0 24 24" fill="none" stroke="currentColor" stroke-width="2" stroke-linecap="round" stroke-linejoin="round"><path d="M10.733 5.076a10.744 10.744 0 0 1 11.205 6.575 1 1 0 0 1 0 .696 10.747 10.747 0 0 1-1.444 2.49" /> <path d="M14.084 14.158a3 3 0 0 1-4.242-4.242" /> <path d="M17.479 17.499a10.75 10.75 0 0 1-15.417-5.151 1 1 0 0 1 0-.696 10.75 10.75 0 0 1 4.446-5.143" /> <path d="m2 2 20 20" /></symbol>
  <symbol id="icon-chevron-down" viewBox="0 0 24 24" fill="none" stroke="currentColor" stroke-width="2" stroke-linecap="round" stroke-linejoin="round"><path d="m6 9 6 6 6-6" /></symbol>
  <symbol id="icon-chevron-right" viewBox="0 0 24 24" fill="none" stroke="currentColor" stroke-width="2" stroke-linecap="round" stroke-linejoin="round"><path d="m9 18 6-6-6-6" /></symbol>
  <symbol id="icon-play" viewBox="0 0 24 24" fill="none" stroke="currentColor" stroke-width="2" stroke-linecap="round" stroke-linejoin="round"><path d="M5 5a2 2 0 0 1 3.008-1.728l11.997 6.998a2 2 0 0 1 .003 3.458l-12 7A2 2 0 0 1 5 19z" /></symbol>
  <symbol id="icon-pause" viewBox="0 0 24 24" fill="none" stroke="currentColor" stroke-width="2" stroke-linecap="round" stroke-linejoin="round"><rect x="14" y="3" width="5" height="18" rx="1" /> <rect x="5" y="3" width="5" height="18" rx="1" /></symbol>
  <symbol id="icon-info" viewBox="0 0 24 24" fill="none" stroke="currentColor" stroke-width="2" stroke-linecap="round" stroke-linejoin="round"><circle cx="12" cy="12" r="10" /> <path d="M12 16v-4" /> <path d="M12 8h.01" /></symbol>
  <symbol id="icon-alert-triangle" viewBox="0 0 24 24" fill="none" stroke="currentColor" stroke-width="2" stroke-linecap="round" stroke-linejoin="round"><path d="m21.73 18-8-14a2 2 0 0 0-3.48 0l-8 14A2 2 0 0 0 4 21h16a2 2 0 0 0 1.73-3" /> <path d="M12 9v4" /> <path d="M12 17h.01" /></symbol>
  <symbol id="icon-check" viewBox="0 0 24 24" fill="none" stroke="currentColor" stroke-width="2" stroke-linecap="round" stroke-linejoin="round"><path d="M20 6 9 17l-5-5" /></symbol>
  <symbol id="icon-x" viewBox="0 0 24 24" fill="none" stroke="currentColor" stroke-width="2" stroke-linecap="round" stroke-linejoin="round"><path d="M18 6 6 18" /> <path d="m6 6 12 12" /></symbol>
</svg>
